<svg width="24" height="24" viewBox="0 0 24 24" fill="none" xmlns="http://www.w3.org/2000/svg">
<path fill-rule="evenodd" clip-rule="evenodd" d="M15.2581 0.307692C15.2581 0.226087 15.2258 0.147825 15.1683 0.0901211C15.1108 0.0324176 15.0329 0 14.9516 0H6.37097C5.47693 0 4.61951 0.356592 3.98733 0.991331C3.35515 1.62607 3 2.48696 3 3.38462V20.6154C3 21.513 3.35515 22.3739 3.98733 23.0087C4.61951 23.6434 5.47693 24 6.37097 24H18.629C19.5231 24 20.3805 23.6434 21.0127 23.0087C21.6448 22.3739 22 21.513 22 20.6154V8.48862C22 8.40701 21.9677 8.32875 21.9102 8.27104C21.8528 8.21334 21.7748 8.18092 21.6935 8.18092H16.1774C15.9336 8.18092 15.6998 8.08367 15.5273 7.91056C15.3549 7.73745 15.2581 7.50266 15.2581 7.25785V0.307692ZM16.1774 12.3077C16.4212 12.3077 16.6551 12.4049 16.8275 12.5781C16.9999 12.7512 17.0968 12.986 17.0968 13.2308C17.0968 13.4756 16.9999 13.7104 16.8275 13.8835C16.6551 14.0566 16.4212 14.1538 16.1774 14.1538H8.82258C8.57875 14.1538 8.34491 14.0566 8.1725 13.8835C8.00009 13.7104 7.90323 13.4756 7.90323 13.2308C7.90323 12.986 8.00009 12.7512 8.1725 12.5781C8.34491 12.4049 8.57875 12.3077 8.82258 12.3077H16.1774ZM16.1774 17.2308C16.4212 17.2308 16.6551 17.328 16.8275 17.5011C16.9999 17.6742 17.0968 17.909 17.0968 18.1538C17.0968 18.3987 16.9999 18.6335 16.8275 18.8066C16.6551 18.9797 16.4212 19.0769 16.1774 19.0769H8.82258C8.57875 19.0769 8.34491 18.9797 8.1725 18.8066C8.00009 18.6335 7.90323 18.3987 7.90323 18.1538C7.90323 17.909 8.00009 17.6742 8.1725 17.5011C8.34491 17.328 8.57875 17.2308 8.82258 17.2308H16.1774Z" fill="#F8F9FA"/>
<path d="M17 0.289308C17 0.0595314 17.261 -0.0865763 17.4543 0.057034C17.6179 0.179415 17.7653 0.321776 17.891 0.484118L21.9649 5.72527C22.0568 5.84515 21.9568 6 21.7972 6H17.338C17.2484 6 17.1624 5.96711 17.099 5.90856C17.0356 5.85001 17 5.7706 17 5.6878V0.289308Z" fill="#F8F9FA"/>
</svg>
