<svg width="24" height="24" viewBox="0 0 24 24" fill="none" xmlns="http://www.w3.org/2000/svg">
<g clip-path="url(#clip0_32_20)">
<path d="M23 3.008C22.8964 2.99733 22.7919 2.99733 22.6883 3.008H1.4029C1.26648 3.0101 1.13096 3.03054 1 3.06877L11.9848 14L23 3.008Z" fill="#F8F9FA"/>
<path d="M23.91 4L12.99 14.9023C12.709 15.1823 12.3288 15.3395 11.9325 15.3395C11.5362 15.3395 11.156 15.1823 10.875 14.9023L0.0525 4.08271C0.0192296 4.20529 0.00158901 4.33161 0 4.45865V19.4962C0 19.8951 0.158035 20.2775 0.43934 20.5596C0.720644 20.8416 1.10218 21 1.5 21H22.5C22.8978 21 23.2794 20.8416 23.5607 20.5596C23.842 20.2775 24 19.8951 24 19.4962V4.45865C23.994 4.302 23.9637 4.14724 23.91 4ZM2.5275 19.4962H1.485V18.4211L6.9375 13L7.995 14.0602L2.5275 19.4962ZM22.485 19.4962H21.435L15.9675 14.0602L17.025 13L22.4775 18.4211L22.485 19.4962Z" fill="#F8F9FA"/>
</g>
<defs>
<clipPath id="clip0_32_20">
<rect width="24" height="24" fill="white"/>
</clipPath>
</defs>
</svg>
