<svg width="512" height="512" viewBox="0 0 512 512" fill="none" xmlns="http://www.w3.org/2000/svg">
<path d="M335.7 88.94C330.958 89.134 326.137 90.426 321.496 93.105C282.562 115.585 231.726 115.058 193.706 93.107C187.616 89.591 181.421 88.497 175.561 89.215C181.694 97.2943 185.009 107.162 184.999 117.305C184.999 140.455 167.962 160.135 145.823 162.4C133.048 177.32 124.27 194.207 121.437 212.383C166.167 188.593 212.384 176.811 258.501 176.875C304.651 176.939 350.698 188.862 395.061 212.495C392.371 194.345 383.845 177.452 371.267 162.575C370.682 162.601 370.097 162.623 369.507 162.623C345.327 162.623 326.06 141.923 326.06 117.305C326.06 106.665 329.66 96.761 335.7 88.94ZM141.55 92.156C128.88 92.156 118.273 103.006 118.273 117.306C118.273 131.603 128.881 142.453 141.551 142.453C154.221 142.453 164.827 131.603 164.827 117.305C164.827 103.007 154.221 92.155 141.552 92.155L141.55 92.156ZM369.506 92.156C356.836 92.156 346.229 103.006 346.229 117.306C346.229 131.603 356.836 142.453 369.505 142.453C382.175 142.453 392.782 131.603 392.782 117.305C392.782 103.007 382.174 92.155 369.505 92.155L369.506 92.156ZM437.078 185.523C428.553 185.611 419.185 187.069 409.225 189.766C416.151 209.223 417.795 230.491 411.92 252.422C407.66 268.318 412.853 289.897 423.62 307.18L428.31 314.71L421.29 320.14C401.525 335.42 384.85 345.247 375.186 355.404C365.522 365.562 361.299 374.994 364.271 396.279L365.796 407.189C369.392 411.889 373.474 416.619 377.938 421.249C397.814 406.699 413.948 397.362 446.282 417.155C439.544 398.351 462.22 387.393 493.002 387.375C456.092 371.495 428.022 361.755 406.564 356.999C474.056 284.811 503.746 229.039 472.564 197.811C464.392 189.628 453.208 185.777 439.284 185.531C438.549 185.518 437.815 185.514 437.08 185.521L437.078 185.523ZM75.461 185.525C74.662 185.515 73.8629 185.517 73.064 185.531C59.139 185.779 47.924 189.631 39.751 197.813C8.569 229.04 38.259 284.813 105.751 357.001C84.295 361.757 56.223 371.498 19.313 387.376C50.095 387.396 72.771 398.353 66.033 417.156C98.365 397.364 114.501 406.702 134.376 421.251C141.089 414.289 146.948 407.105 151.564 400.131L152.101 396.281C155.073 374.998 150.851 365.565 141.187 355.407C131.523 345.25 114.847 335.423 95.081 320.142L88.061 314.715L92.753 307.185C103.483 289.957 108.611 267.952 104.453 252.425C98.671 230.853 100.268 209.985 106.989 190.865C95.653 187.477 85.035 185.649 75.462 185.527L75.461 185.525ZM258.499 195.185C212.403 195.12 166.199 208.012 120.925 234.031C121.41 238.526 122.244 242.976 123.419 247.341V247.343C128.872 267.697 124.012 290.273 113.935 309.64C129.825 321.274 144.278 330.166 155.413 341.87C165.773 352.76 172.208 367.002 172.368 385.582C171.272 401.89 163.211 424.855 150.021 444.826C174.611 430.589 192.155 429.493 195.311 448.318C209.408 430.535 221.009 427.932 234.296 440.283C230.551 408.831 223.179 387.396 217.038 375.186C202.142 338.619 174.222 313.702 143.296 291.762L154.656 275.748C193.444 303.265 231.454 338.411 243.78 395.314C253.408 396.019 263.03 395.964 272.63 395.154C284.992 338.344 322.964 303.236 361.715 275.746L373.075 291.762C341.885 313.889 313.742 339.042 298.945 376.125C292.9 388.482 285.805 409.618 282.152 440.283C295.442 427.933 307.042 430.535 321.139 448.318C324.292 429.493 341.836 430.588 366.427 444.826C352.917 424.371 344.782 400.768 344.007 384.402C344.422 366.392 350.817 352.53 360.957 341.869C372.092 330.164 386.543 321.274 402.431 309.639C392.367 290.349 387.441 267.903 392.951 247.337C394.124 242.985 394.963 238.55 395.461 234.071C350.611 208.281 304.609 195.251 258.497 195.185H258.499Z" fill="#B290D9"/>
</svg>
